<svg width="50" height="50" viewBox="0 0 50 50" fill="none" xmlns="http://www.w3.org/2000/svg">
<path d="M5.93809 49.9993H9.13348C9.91726 49.9993 10.5503 49.3662 10.5503 48.5824V42.3876C10.5503 42.0078 10.3994 41.6436 10.1309 41.3751C9.86238 41.1066 9.49817 40.9557 9.11841 40.9557H5.93809C5.15431 40.9557 4.52126 41.6038 4.52126 42.3876V48.5824C4.52126 49.3662 5.15431 49.9993 5.93809 49.9993V49.9993ZM33.0839 49.9993H36.2642C37.048 49.9993 37.681 49.3662 37.666 48.5824V42.3876C37.666 41.6038 37.0329 40.9708 36.2491 40.9708H33.0688C32.285 40.9708 31.652 41.6038 31.652 42.3876V48.5824C31.652 49.3662 32.285 49.9993 33.0839 49.9993V49.9993Z" fill="#321B41"/>
<path d="M35.5407 45.4788H6.66157C5.48591 45.4788 4.52126 44.5292 4.52126 43.3385V34.9279C7.53578 34.1743 19.9255 32.7876 21.1011 32.7876C25.0321 32.7876 29.3911 33.4207 37.681 34.9279V43.3385C37.681 44.5292 36.7164 45.4788 35.5407 45.4788Z" fill="#EDC808"/>
<path d="M1.83886 30.4049C2.48698 30.4049 3.01452 29.8774 3.01452 29.2293V28.8977H6.02905V25.8831H3.01452V24.0443C3.01452 23.3961 2.48698 22.8686 1.83886 22.8686H1.17566C0.527542 22.8686 0 23.3961 0 24.0443V29.2293C0 29.8774 0.527542 30.4049 1.17566 30.4049H1.83886V30.4049ZM41.0277 30.4049C41.6758 30.4049 42.2033 29.8774 42.2033 29.2293V24.0443C42.2033 23.3961 41.6758 22.8686 41.0277 22.8686H40.3645C39.7164 22.8686 39.1888 23.3961 39.1888 24.0443V25.8831H36.1743V28.8977H39.1888V29.2293C39.1888 29.8774 39.7164 30.4049 40.3645 30.4049H41.0277Z" fill="#321B41"/>
<path d="M32.5413 10.8112H9.66102C6.8123 10.8112 4.52126 13.0269 4.52126 15.7701V34.9274H37.681V15.7701C37.681 13.0269 35.39 10.8112 32.5413 10.8112Z" fill="#EDC808"/>
<path d="M33.1746 33.42H9.02831C8.19931 33.42 7.53612 32.7417 7.53612 31.9278V19.8546L21.1015 18.3473L34.6668 19.8546V31.9278C34.6668 32.7417 34.0036 33.42 33.1746 33.42V33.42Z" fill="#868686"/>
<path d="M12.811 37.9427H29.3909C29.8129 37.9427 30.1445 37.6111 30.1445 37.1891C30.1445 36.7671 29.8129 36.4355 29.3909 36.4355H12.811C12.389 36.4355 12.0574 36.7821 12.0574 37.1891C12.0574 37.6111 12.389 37.9427 12.811 37.9427ZM15.8255 40.9573H26.3764C26.7984 40.9573 27.13 40.6257 27.13 40.2036C27.13 39.7816 26.7984 39.45 26.3764 39.45H15.8255C15.4035 39.45 15.0719 39.7816 15.0719 40.2036C15.0719 40.6257 15.4035 40.9573 15.8255 40.9573Z" fill="#E6E6E6"/>
<path d="M7.53578 36.4355C8.36478 36.4355 9.04305 37.1137 9.04305 37.9427V40.9573C9.04305 41.7862 8.36478 42.4645 7.53578 42.4645H4.52126V36.4355H7.53578ZM34.6665 42.4645C33.8375 42.4645 33.1592 41.7862 33.1592 40.9573V37.9427C33.1592 37.1137 33.8375 36.4355 34.6665 36.4355H37.681V42.4645H34.6665Z" fill="#868686"/>
<path d="M34.6668 19.8543H7.53612V16.8247C7.53612 15.9957 8.19931 15.3325 9.02831 15.3325H33.1897C34.0036 15.3325 34.6668 15.9957 34.6668 16.8247V19.8543V19.8543Z" fill="#433B6B"/>
<circle cx="38.5132" cy="11.4865" r="8.12209" transform="rotate(-45 38.5132 11.4865)" fill="#4382EE"/>
<path d="M37.1171 6.91099L37.1171 16.1099L35.4507 16.1099L35.4507 8.53248L35.3968 8.53248L33.2453 9.90693L33.2453 8.37977L35.5316 6.91099L37.1171 6.91099ZM43.1944 6.91099L43.1944 16.1099L41.528 16.1099L41.528 8.53248L41.4741 8.53248L39.3226 9.90693L39.3226 8.37977L41.6088 6.91099L43.1944 6.91099Z" fill="white"/>
</svg>
